<svg xmlns="http://www.w3.org/2000/svg" xmlns:xlink="http://www.w3.org/1999/xlink" width="500" zoomAndPan="magnify" viewBox="0 0 375 374.999991" height="500" preserveAspectRatio="xMidYMid meet" version="1.0"><defs><g/></defs><rect x="-37.5" width="450" fill="#ffffff" y="-37.499999" height="449.999989" fill-opacity="1"/><rect x="-37.5" width="450" fill="#ffffff" y="-37.499999" height="449.999989" fill-opacity="1"/><g fill="#ffbd59" fill-opacity="1"><g transform="translate(27.935285, 252.5537)"><g><path d="M 145.726562 -178.917969 L 105.015625 -178.917969 L 105.015625 -70.011719 C 105.015625 -63.527344 105.015625 -57.824219 104.496094 -51.859375 C 103.203125 -36.042969 95.679688 -26.449219 80.640625 -26.449219 C 65.34375 -26.449219 55.488281 -34.488281 53.933594 -58.082031 L 53.414062 -66.640625 L 12.964844 -66.640625 L 13.222656 -58.082031 C 14.261719 -20.484375 34.226562 3.628906 78.828125 3.628906 C 123.167969 3.628906 143.132812 -18.410156 144.949219 -49.527344 C 145.726562 -61.714844 145.726562 -67.417969 145.726562 -75.195312 Z M 145.726562 -178.917969 "/></g></g></g><g fill="#ffbd59" fill-opacity="1"><g transform="translate(174.439215, 252.5537)"><g><path d="M 82.976562 -182.546875 C 48.230469 -182.546875 17.375 -163.097656 17.375 -129.648438 C 17.375 -95.421875 40.710938 -82.714844 79.085938 -73.121094 C 103.460938 -67.417969 111.757812 -58.859375 111.757812 -46.414062 C 111.757812 -34.226562 100.089844 -26.449219 85.308594 -26.449219 C 68.972656 -26.449219 54.710938 -35.265625 51.082031 -53.675781 L 10.113281 -53.675781 C 13.222656 -15.039062 42.265625 3.628906 86.085938 3.628906 C 121.871094 3.628906 154.285156 -15.039062 154.285156 -49.785156 C 154.285156 -78.050781 137.167969 -96.71875 97.757812 -106.054688 C 68.972656 -112.796875 59.898438 -120.054688 59.898438 -133.539062 C 59.898438 -146.503906 68.972656 -152.46875 81.679688 -152.46875 C 98.792969 -152.46875 108.128906 -141.835938 110.203125 -125.242188 L 151.171875 -125.242188 C 147.28125 -157.652344 127.574219 -182.546875 82.976562 -182.546875 Z M 82.976562 -182.546875 "/></g></g></g><path stroke-linecap="butt" transform="matrix(0.991813, 0, 0, 0.991813, 12.771864, 28.846097)" fill="none" stroke-linejoin="miter" d="M 150.664751 33.62056 L 109.62564 33.62056 L 109.62564 143.406092 C 109.62564 149.916423 109.62564 155.725702 109.113635 161.724029 C 107.774547 177.682808 100.177192 187.320304 85.053373 187.320304 C 69.606598 187.320304 59.7131 179.214883 58.114071 155.406684 L 57.606006 146.789258 L 16.818958 146.789258 L 17.07496 155.406684 C 18.09503 193.318631 38.26406 217.638834 83.202281 217.638834 C 127.943577 217.638834 148.049591 195.425726 149.900683 164.087126 C 150.664751 151.767515 150.664751 146.021252 150.664751 138.171833 Z M 235.125764 29.918376 C 200.084979 29.918376 168.935427 49.57934 168.935427 83.281036 C 168.935427 117.809817 192.487623 130.578415 231.167577 140.278927 C 255.743782 146.021252 264.105205 154.638678 264.105205 167.21429 C 264.105205 179.470885 252.360615 187.320304 237.48886 187.320304 C 221.022015 187.320304 206.59531 178.446876 202.956141 159.872937 L 161.661028 159.872937 C 164.788192 198.808892 194.086652 217.638834 238.252928 217.638834 C 274.317721 217.638834 306.995409 198.808892 306.995409 163.831124 C 306.995409 135.30067 289.764496 116.470729 249.997518 107.089235 C 221.022015 100.259886 211.829569 92.981548 211.829569 79.385865 C 211.829569 66.302187 221.022015 60.299921 233.786675 60.299921 C 251.084543 60.299921 260.466036 70.961426 262.573131 87.747289 L 303.868245 87.747289 C 299.977012 55.069601 280.060046 29.918376 235.125764 29.918376 Z M 235.125764 29.918376 " stroke="#2e4756" stroke-width="9.804075" stroke-opacity="1" stroke-miterlimit="4"/><g fill="#ffbd59" fill-opacity="1"><g transform="translate(23.000828, 320.223173)"><g><path d="M 19.210938 -34.679688 C 9.851562 -34.679688 2.5625 -28.226562 2.5625 -16.796875 C 2.5625 -5.664062 9.457031 0.691406 18.769531 0.691406 C 27.386719 0.691406 33.25 -3.792969 34.039062 -11.476562 L 34.089844 -11.96875 L 26.355469 -11.96875 L 26.253906 -11.476562 C 25.46875 -7.4375 23.054688 -5.023438 19.0625 -5.023438 C 14.433594 -5.023438 10.6875 -8.71875 10.6875 -17.242188 C 10.6875 -24.777344 14.1875 -28.964844 19.113281 -28.964844 C 23.203125 -28.964844 25.613281 -26.847656 26.402344 -22.90625 L 26.5 -22.414062 L 34.234375 -22.414062 L 34.1875 -22.90625 C 33.496094 -29.605469 28.621094 -34.679688 19.210938 -34.679688 Z M 19.210938 -34.679688 "/></g></g></g><g fill="#ffbd59" fill-opacity="1"><g transform="translate(56.246567, 320.223173)"><g><path d="M 18.226562 0 L 25.761719 0 C 25.367188 -2.90625 25.269531 -4.679688 25.269531 -6.648438 L 25.269531 -14.628906 C 25.269531 -16.15625 25.222656 -17.636719 25.121094 -18.867188 C 24.730469 -23.546875 21.921875 -26.945312 14.136719 -26.945312 C 7.734375 -26.945312 2.660156 -23.546875 2.511719 -17.535156 L 9.902344 -17.535156 C 10.097656 -20.148438 11.429688 -21.625 13.84375 -21.625 C 16.15625 -21.625 17.339844 -20.34375 17.488281 -18.769531 C 17.585938 -17.882812 17.585938 -17.191406 17.585938 -16.503906 L 17.585938 -16.058594 L 15.910156 -16.058594 C 6.648438 -16.058594 1.578125 -12.710938 1.578125 -6.996094 C 1.578125 -2.019531 5.566406 0.691406 10 0.691406 C 12.414062 0.691406 14.628906 0.148438 16.503906 -1.035156 L 17.683594 -3.84375 Z M 13.054688 -4.628906 C 10.9375 -4.628906 9.507812 -5.664062 9.507812 -7.636719 C 9.507812 -10.6875 12.808594 -11.871094 17.585938 -11.476562 L 17.585938 -9.554688 C 17.585938 -6.304688 15.367188 -4.628906 13.054688 -4.628906 Z M 13.054688 -4.628906 "/></g></g></g><g fill="#ffbd59" fill-opacity="1"><g transform="translate(82.005709, 320.223173)"><g><path d="M 12.167969 -21.132812 L 17.734375 -21.132812 L 17.734375 -26.058594 L 12.167969 -26.058594 L 12.167969 -32.660156 L 4.433594 -32.660156 L 4.433594 -26.058594 L 0.441406 -26.058594 L 0.441406 -21.132812 L 4.433594 -21.132812 L 4.433594 -9.0625 C 4.433594 -7.585938 4.433594 -6.402344 4.53125 -5.074219 C 4.828125 -1.230469 6.699219 0.640625 12.460938 0.640625 C 14.136719 0.640625 15.664062 0.492188 17.242188 0.246094 L 17.242188 -4.679688 C 13.300781 -4.433594 12.414062 -5.023438 12.214844 -7.636719 C 12.167969 -8.324219 12.167969 -9.210938 12.167969 -10.097656 Z M 12.167969 -21.132812 "/></g></g></g><g fill="#ffbd59" fill-opacity="1"><g transform="translate(98.160342, 320.223173)"><g><path d="M 27.585938 -13.597656 C 27.585938 -20.589844 23.25 -26.945312 14.875 -26.945312 C 6.550781 -26.945312 1.28125 -20.933594 1.28125 -13.054688 C 1.28125 -3.792969 7.042969 0.691406 14.382812 0.691406 C 20.789062 0.691406 25.714844 -2.511719 27.140625 -8.570312 L 19.507812 -8.570312 C 19.0625 -6.109375 17.242188 -4.628906 14.53125 -4.628906 C 11.625 -4.628906 9.457031 -6.109375 9.015625 -11.132812 L 27.4375 -11.132812 C 27.535156 -12.070312 27.585938 -12.90625 27.585938 -13.597656 Z M 14.53125 -21.625 C 17.390625 -21.625 19.113281 -19.703125 19.554688 -16.007812 L 9.210938 -16.007812 C 9.851562 -19.902344 11.773438 -21.625 14.53125 -21.625 Z M 14.53125 -21.625 "/></g></g></g><g fill="#ffbd59" fill-opacity="1"><g transform="translate(124.6583, 320.223173)"><g><path d="M 29.359375 -26.253906 L 21.625 -26.253906 L 21.625 -22.808594 L 19.902344 -25.566406 C 18.570312 -26.402344 15.960938 -26.945312 13.792969 -26.945312 C 7.042969 -26.945312 1.28125 -22.316406 1.28125 -12.90625 C 1.28125 -5.121094 6.007812 -0.0507812 13.300781 -0.0507812 C 15.960938 -0.0507812 18.175781 -0.691406 19.65625 -1.773438 L 21.625 -4.679688 L 21.625 -3.988281 C 21.625 -2.757812 21.574219 -1.625 21.527344 -0.691406 C 21.328125 3.203125 18.816406 5.023438 15.023438 5.023438 C 11.824219 5.023438 9.703125 3.742188 9.457031 1.625 L 9.410156 1.183594 L 1.921875 1.183594 L 1.96875 1.675781 C 2.5625 7.535156 7.09375 10.738281 14.828125 10.738281 C 23.398438 10.738281 29.015625 6.847656 29.308594 -1.578125 C 29.359375 -3.003906 29.359375 -5.023438 29.359375 -6.648438 Z M 15.367188 -5.371094 C 11.722656 -5.371094 9.210938 -8.324219 9.210938 -13.496094 C 9.210938 -19.210938 11.871094 -21.625 15.617188 -21.625 C 18.523438 -21.625 21.625 -19.65625 21.625 -14.039062 L 21.625 -13.546875 C 21.625 -7.535156 18.867188 -5.371094 15.367188 -5.371094 Z M 15.367188 -5.371094 "/></g></g></g><g fill="#ffbd59" fill-opacity="1"><g transform="translate(154.505519, 320.223173)"><g><path d="M 15.121094 -26.945312 C 6.402344 -26.945312 1.28125 -21.328125 1.28125 -13.152344 C 1.28125 -4.976562 6.402344 0.691406 15.121094 0.691406 C 23.792969 0.691406 28.964844 -4.976562 28.964844 -13.152344 C 28.964844 -21.328125 23.792969 -26.945312 15.121094 -26.945312 Z M 15.121094 -4.628906 C 11.429688 -4.628906 9.210938 -7.683594 9.210938 -13.152344 C 9.210938 -18.621094 11.429688 -21.625 15.121094 -21.625 C 18.769531 -21.625 20.984375 -18.621094 20.984375 -13.152344 C 20.984375 -7.683594 18.769531 -4.628906 15.121094 -4.628906 Z M 15.121094 -4.628906 "/></g></g></g><g fill="#ffbd59" fill-opacity="1"><g transform="translate(182.234815, 320.223173)"><g><path d="M 17.390625 -26.945312 C 15.863281 -26.945312 13.941406 -26.253906 12.609375 -24.875 L 10.640625 -21.230469 L 10.640625 -26.253906 L 2.90625 -26.253906 L 2.90625 0 L 10.640625 0 L 10.640625 -10.984375 C 10.640625 -18.421875 13.25 -20.886719 19.359375 -20.492188 L 19.359375 -26.75 C 18.769531 -26.847656 18.226562 -26.945312 17.390625 -26.945312 Z M 17.390625 -26.945312 "/></g></g></g><g fill="#ffbd59" fill-opacity="1"><g transform="translate(199.374516, 320.223173)"><g><path d="M 6.75 -36.402344 C 4.285156 -36.402344 2.660156 -34.875 2.660156 -32.511719 C 2.660156 -30.097656 4.285156 -28.570312 6.75 -28.570312 C 9.210938 -28.570312 10.886719 -30.097656 10.886719 -32.511719 C 10.886719 -34.875 9.210938 -36.402344 6.75 -36.402344 Z M 10.640625 0 L 10.640625 -26.253906 L 2.90625 -26.253906 L 2.90625 0 Z M 10.640625 0 "/></g></g></g><g fill="#ffbd59" fill-opacity="1"><g transform="translate(210.505245, 320.223173)"><g><path d="M 27.585938 -13.597656 C 27.585938 -20.589844 23.25 -26.945312 14.875 -26.945312 C 6.550781 -26.945312 1.28125 -20.933594 1.28125 -13.054688 C 1.28125 -3.792969 7.042969 0.691406 14.382812 0.691406 C 20.789062 0.691406 25.714844 -2.511719 27.140625 -8.570312 L 19.507812 -8.570312 C 19.0625 -6.109375 17.242188 -4.628906 14.53125 -4.628906 C 11.625 -4.628906 9.457031 -6.109375 9.015625 -11.132812 L 27.4375 -11.132812 C 27.535156 -12.070312 27.585938 -12.90625 27.585938 -13.597656 Z M 14.53125 -21.625 C 17.390625 -21.625 19.113281 -19.703125 19.554688 -16.007812 L 9.210938 -16.007812 C 9.851562 -19.902344 11.773438 -21.625 14.53125 -21.625 Z M 14.53125 -21.625 "/></g></g></g><g fill="#ffbd59" fill-opacity="1"><g transform="translate(237.003202, 320.223173)"><g><path d="M 12.957031 -26.945312 C 6.355469 -26.945312 2.019531 -23.792969 2.019531 -18.667969 C 2.019531 -14.1875 5.222656 -11.96875 10.148438 -10.738281 C 14.777344 -9.65625 16.453125 -8.621094 16.453125 -6.75 C 16.453125 -5.074219 14.976562 -4.285156 13.101562 -4.285156 C 10.9375 -4.285156 9.164062 -5.617188 8.621094 -8.078125 L 0.984375 -8.078125 C 1.675781 -2.167969 6.355469 0.691406 13.054688 0.691406 C 19.210938 0.691406 24.1875 -1.871094 24.1875 -7.339844 C 24.1875 -12.265625 20.933594 -14.382812 15.863281 -15.664062 C 11.183594 -16.847656 9.753906 -17.832031 9.753906 -19.605469 C 9.753906 -20.984375 10.789062 -22.019531 12.460938 -22.019531 C 14.382812 -22.019531 15.515625 -20.789062 15.960938 -18.621094 L 23.59375 -18.621094 C 22.957031 -23.398438 19.308594 -26.945312 12.957031 -26.945312 Z M 12.957031 -26.945312 "/></g></g></g><g fill="#ffbd59" fill-opacity="1"><g transform="translate(259.708599, 320.223173)"><g/></g></g><g fill="#ffbd59" fill-opacity="1"><g transform="translate(266.406482, 320.223173)"><g><path d="M 29.410156 -6.503906 L 11.921875 -6.503906 L 11.921875 -33.988281 L 4.1875 -33.988281 L 4.1875 0 L 29.410156 0 Z M 29.410156 -6.503906 "/></g></g></g><g fill="#ffbd59" fill-opacity="1"><g transform="translate(294.234301, 320.223173)"><g><path d="M 6.75 -36.402344 C 4.285156 -36.402344 2.660156 -34.875 2.660156 -32.511719 C 2.660156 -30.097656 4.285156 -28.570312 6.75 -28.570312 C 9.210938 -28.570312 10.886719 -30.097656 10.886719 -32.511719 C 10.886719 -34.875 9.210938 -36.402344 6.75 -36.402344 Z M 10.640625 0 L 10.640625 -26.253906 L 2.90625 -26.253906 L 2.90625 0 Z M 10.640625 0 "/></g></g></g><g fill="#ffbd59" fill-opacity="1"><g transform="translate(305.365029, 320.223173)"><g><path d="M 12.957031 -26.945312 C 6.355469 -26.945312 2.019531 -23.792969 2.019531 -18.667969 C 2.019531 -14.1875 5.222656 -11.96875 10.148438 -10.738281 C 14.777344 -9.65625 16.453125 -8.621094 16.453125 -6.75 C 16.453125 -5.074219 14.976562 -4.285156 13.101562 -4.285156 C 10.9375 -4.285156 9.164062 -5.617188 8.621094 -8.078125 L 0.984375 -8.078125 C 1.675781 -2.167969 6.355469 0.691406 13.054688 0.691406 C 19.210938 0.691406 24.1875 -1.871094 24.1875 -7.339844 C 24.1875 -12.265625 20.933594 -14.382812 15.863281 -15.664062 C 11.183594 -16.847656 9.753906 -17.832031 9.753906 -19.605469 C 9.753906 -20.984375 10.789062 -22.019531 12.460938 -22.019531 C 14.382812 -22.019531 15.515625 -20.789062 15.960938 -18.621094 L 23.59375 -18.621094 C 22.957031 -23.398438 19.308594 -26.945312 12.957031 -26.945312 Z M 12.957031 -26.945312 "/></g></g></g><g fill="#ffbd59" fill-opacity="1"><g transform="translate(328.070427, 320.223173)"><g><path d="M 12.167969 -21.132812 L 17.734375 -21.132812 L 17.734375 -26.058594 L 12.167969 -26.058594 L 12.167969 -32.660156 L 4.433594 -32.660156 L 4.433594 -26.058594 L 0.441406 -26.058594 L 0.441406 -21.132812 L 4.433594 -21.132812 L 4.433594 -9.0625 C 4.433594 -7.585938 4.433594 -6.402344 4.53125 -5.074219 C 4.828125 -1.230469 6.699219 0.640625 12.460938 0.640625 C 14.136719 0.640625 15.664062 0.492188 17.242188 0.246094 L 17.242188 -4.679688 C 13.300781 -4.433594 12.414062 -5.023438 12.214844 -7.636719 C 12.167969 -8.324219 12.167969 -9.210938 12.167969 -10.097656 Z M 12.167969 -21.132812 "/></g></g></g><path stroke-linecap="butt" transform="matrix(0.75, 0, 0, 0.75, 18.022723, 275.29586)" fill="none" stroke-linejoin="miter" d="M 29.344704 10.756562 C 16.865537 10.756562 7.151995 19.365938 7.151995 34.600314 C 7.151995 49.449273 16.339495 57.912815 28.766579 57.912815 C 40.245747 57.912815 48.073872 51.949273 49.115539 41.704481 L 49.178039 41.043022 L 38.865538 41.043022 L 38.740538 41.704481 C 37.698872 47.089898 34.474913 50.298231 29.151996 50.298231 C 22.974912 50.298231 17.990537 45.376356 17.990537 34.006563 C 17.990537 23.970104 22.657204 18.386771 29.214496 18.386771 C 34.667621 18.386771 37.89158 21.209688 38.933247 26.45448 L 39.073872 27.11073 L 49.386372 27.11073 L 49.323872 26.45448 C 48.391581 17.522187 41.896789 10.756562 29.344704 10.756562 Z M 72.370749 57.001357 L 82.407208 57.001357 C 81.881166 53.121148 81.750958 50.761773 81.750958 48.131564 L 81.750958 37.48573 C 81.750958 35.464897 81.688458 33.490938 81.558249 31.839897 C 81.032208 25.605521 77.292624 21.063854 66.917624 21.063854 C 58.370748 21.063854 51.605123 25.605521 51.412414 33.621147 L 61.261373 33.621147 C 61.532206 30.14198 63.297832 28.168021 66.516582 28.168021 C 69.594707 28.168021 71.183249 29.865938 71.375957 31.970105 C 71.506165 33.157605 71.506165 34.069063 71.506165 35.001355 L 71.506165 35.595105 L 69.276999 35.595105 C 56.92804 35.595105 50.162414 40.053439 50.162414 47.668023 C 50.162414 54.308648 55.485331 57.912815 61.386373 57.912815 C 64.610332 57.912815 67.579082 57.194065 70.063457 55.621148 L 71.631165 51.886773 Z M 65.45929 50.824273 C 62.636373 50.824273 60.745748 49.449273 60.745748 46.819064 C 60.745748 42.746147 65.141582 41.173231 71.506165 41.704481 L 71.506165 44.251356 C 71.506165 48.595106 68.55304 50.824273 65.45929 50.824273 Z M 98.636376 28.824271 L 106.058251 28.824271 L 106.058251 22.251354 L 98.636376 22.251354 L 98.636376 13.44927 L 88.323875 13.44927 L 88.323875 22.251354 L 83.000958 22.251354 L 83.000958 28.824271 L 88.323875 28.824271 L 88.323875 44.907606 C 88.323875 46.881564 88.323875 48.470106 88.454083 50.235731 C 88.8395 55.36594 91.3395 57.850315 99.021792 57.850315 C 101.266584 57.850315 103.303043 57.657607 105.402001 57.319065 L 105.402001 50.761773 C 100.141584 51.08469 98.954084 50.298231 98.698876 46.819064 C 98.636376 45.902398 98.636376 44.714898 98.636376 43.532606 Z M 140.730128 38.881564 C 140.730128 29.54823 134.94367 21.063854 123.782211 21.063854 C 112.68846 21.063854 105.646793 29.084688 105.646793 39.600314 C 105.646793 51.949273 113.34471 57.912815 123.125961 57.912815 C 131.672836 57.912815 138.230128 53.64719 140.136378 45.569064 L 129.954086 45.569064 C 129.360336 48.855523 126.943669 50.824273 123.318669 50.824273 C 119.454085 50.824273 116.553043 48.855523 115.974918 42.152397 L 140.521795 42.152397 C 140.667628 40.902397 140.730128 39.793022 140.730128 38.881564 Z M 123.318669 28.168021 C 127.136377 28.168021 129.428044 30.73573 130.021794 35.657605 L 116.230127 35.657605 C 117.079085 30.459688 119.646794 28.168021 123.318669 28.168021 Z M 178.417631 21.996146 L 168.110338 21.996146 L 168.110338 26.595105 L 165.813463 22.907604 C 164.037422 21.803438 160.558255 21.063854 157.667629 21.063854 C 148.672837 21.063854 140.97492 27.256563 140.97492 39.793022 C 140.97492 50.168023 147.297837 56.933648 157.011379 56.933648 C 160.558255 56.933648 163.506172 56.08469 165.48013 54.641981 L 168.110338 50.761773 L 168.110338 51.67844 C 168.110338 53.329481 168.04263 54.83469 167.98013 56.08469 C 167.724922 61.266982 164.370755 63.704482 159.303046 63.704482 C 155.042629 63.704482 152.219712 61.985732 151.881171 59.162815 L 151.818671 58.569065 L 141.844712 58.569065 L 141.907212 59.230523 C 142.69367 67.053441 148.740546 71.319066 159.047838 71.319066 C 170.48013 71.319066 177.969714 66.126357 178.355131 54.89719 C 178.417631 52.99094 178.417631 50.298231 178.417631 48.131564 Z M 159.771796 49.850315 C 154.912421 49.850315 151.558254 45.902398 151.558254 39.006564 C 151.558254 31.39198 155.105129 28.168021 160.089505 28.168021 C 163.969713 28.168021 168.110338 30.79823 168.110338 38.287814 L 168.110338 38.944064 C 168.110338 46.944064 164.438463 49.850315 159.771796 49.850315 Z M 199.230132 21.063854 C 187.605131 21.063854 180.771798 28.553438 180.771798 39.459689 C 180.771798 50.360731 187.605131 57.912815 199.230132 57.912815 C 210.792633 57.912815 217.688467 50.360731 217.688467 39.459689 C 217.688467 28.553438 210.792633 21.063854 199.230132 21.063854 Z M 199.230132 50.824273 C 194.308257 50.824273 191.355132 46.751356 191.355132 39.459689 C 191.355132 32.178438 194.308257 28.168021 199.230132 28.168021 C 204.105133 28.168021 207.053049 32.178438 207.053049 39.459689 C 207.053049 46.751356 204.105133 50.824273 199.230132 50.824273 Z M 239.235343 21.063854 C 237.198885 21.063854 234.631176 21.996146 232.865551 23.839896 L 230.235343 28.699271 L 230.235343 21.996146 L 219.92805 21.996146 L 219.92805 57.001357 L 230.235343 57.001357 L 230.235343 42.360731 C 230.235343 32.433647 233.719718 29.147188 241.865552 29.678438 L 241.865552 21.339896 C 241.079093 21.209688 240.355135 21.063854 239.235343 21.063854 Z M 247.896802 8.459687 C 244.610344 8.459687 242.443677 10.496145 242.443677 13.657604 C 242.443677 16.865937 244.610344 18.902396 247.896802 18.902396 C 251.183261 18.902396 253.412427 16.865937 253.412427 13.657604 C 253.412427 10.496145 251.183261 8.459687 247.896802 8.459687 Z M 253.089511 57.001357 L 253.089511 21.996146 L 242.782218 21.996146 L 242.782218 57.001357 Z M 290.527013 38.881564 C 290.527013 29.54823 284.735346 21.063854 273.573887 21.063854 C 262.480136 21.063854 255.438469 29.084688 255.438469 39.600314 C 255.438469 51.949273 263.136386 57.912815 272.917637 57.912815 C 281.464513 57.912815 288.021805 53.64719 289.933263 45.569064 L 279.750971 45.569064 C 279.157221 48.855523 276.735346 50.824273 273.110345 50.824273 C 269.245762 50.824273 266.34472 48.855523 265.766595 42.152397 L 290.31868 42.152397 C 290.459305 40.902397 290.527013 39.793022 290.527013 38.881564 Z M 273.110345 28.168021 C 276.928054 28.168021 279.219721 30.73573 279.813471 35.657605 L 266.021803 35.657605 C 266.870762 30.459688 269.43847 28.168021 273.110345 28.168021 Z M 306.339514 21.063854 C 297.53743 21.063854 291.766597 25.282605 291.766597 32.115938 C 291.766597 38.07948 296.032222 41.043022 302.605139 42.678439 C 308.777014 44.126356 311.006181 45.501356 311.006181 48.006564 C 311.006181 50.235731 309.032223 51.293023 306.547848 51.293023 C 303.646806 51.293023 301.287431 49.511773 300.568681 46.225314 L 290.386388 46.225314 C 291.297847 54.11594 297.53743 57.912815 306.469723 57.912815 C 314.678056 57.912815 321.318682 54.496148 321.318682 47.220106 C 321.318682 40.641981 316.990557 37.824272 310.219723 36.105522 C 303.985347 34.532605 302.073889 33.220105 302.073889 30.86073 C 302.073889 29.01698 303.454097 27.64198 305.683264 27.64198 C 308.250973 27.64198 309.756181 29.277396 310.349931 32.178438 L 320.532224 32.178438 C 319.683265 25.793021 314.82389 21.063854 306.339514 21.063854 Z M 367.480143 48.324273 L 344.167642 48.324273 L 344.167642 11.683645 L 333.855141 11.683645 L 333.855141 57.001357 L 367.480143 57.001357 Z M 374.375977 8.459687 C 371.089518 8.459687 368.922852 10.496145 368.922852 13.657604 C 368.922852 16.865937 371.089518 18.902396 374.375977 18.902396 C 377.662436 18.902396 379.891602 16.865937 379.891602 13.657604 C 379.891602 10.496145 377.662436 8.459687 374.375977 8.459687 Z M 379.568686 57.001357 L 379.568686 21.996146 L 369.261393 21.996146 L 369.261393 57.001357 Z M 397.490562 21.063854 C 388.688478 21.063854 382.912436 25.282605 382.912436 32.115938 C 382.912436 38.07948 387.178061 41.043022 393.756187 42.678439 C 399.928062 44.126356 402.157229 45.501356 402.157229 48.006564 C 402.157229 50.235731 400.18327 51.293023 397.698895 51.293023 C 394.797853 51.293023 392.438478 49.511773 391.719728 46.225314 L 381.537436 46.225314 C 382.448894 54.11594 388.688478 57.912815 397.615562 57.912815 C 405.829104 57.912815 412.464521 54.496148 412.464521 47.220106 C 412.464521 40.641981 408.136396 37.824272 401.37077 36.105522 C 395.131187 34.532605 393.224937 33.220105 393.224937 30.86073 C 393.224937 29.01698 394.605145 27.64198 396.834312 27.64198 C 399.396812 27.64198 400.907229 29.277396 401.500979 32.178438 L 411.683271 32.178438 C 410.829104 25.793021 405.974937 21.063854 397.490562 21.063854 Z M 426.71973 28.824271 L 434.146814 28.824271 L 434.146814 22.251354 L 426.71973 22.251354 L 426.71973 13.44927 L 416.412438 13.44927 L 416.412438 22.251354 L 411.089521 22.251354 L 411.089521 28.824271 L 416.412438 28.824271 L 416.412438 44.907606 C 416.412438 46.881564 416.412438 48.470106 416.537438 50.235731 C 416.922855 55.36594 419.422855 57.850315 427.105147 57.850315 C 429.349939 57.850315 431.386397 57.657607 433.490564 57.319065 L 433.490564 50.761773 C 428.230147 51.08469 427.042647 50.298231 426.787439 46.819064 C 426.71973 45.902398 426.71973 44.714898 426.71973 43.532606 Z M 426.71973 28.824271 " stroke="#2e4756" stroke-width="2.46336" stroke-opacity="1" stroke-miterlimit="4"/></svg>